<svg width="161" height="54" viewBox="0 0 161 54" fill="none" xmlns="http://www.w3.org/2000/svg">
<g id="Group">
<g id="Group_2">
<g id="Group_3">
<path id="Vector" d="M147.513 0.166677H13.3794C12.8905 0.166677 12.4074 0.166677 11.9198 0.169344C11.5116 0.172011 11.1066 0.179757 10.6945 0.186277C9.79919 0.196813 8.90598 0.275579 8.02264 0.421891C7.14054 0.571387 6.28607 0.853232 5.48813 1.25789C4.69117 1.66597 3.96296 2.19623 3.32993 2.82944C2.69357 3.46086 2.16312 4.1907 1.75897 4.99089C1.3537 5.78949 1.07269 6.64526 0.925637 7.52865C0.777185 8.41092 0.697302 9.30337 0.686704 10.198C0.674331 10.6068 0.673024 11.0169 0.666504 11.4258V42.2448C0.673024 42.6588 0.674331 43.0599 0.686704 43.474C0.697305 44.3686 0.777188 45.261 0.925637 46.1432C1.07229 47.0271 1.35331 47.8834 1.75897 48.6823C2.16294 49.4799 2.69346 50.2068 3.32993 50.8347C3.96056 51.4707 4.68924 52.0013 5.48813 52.4063C6.28606 52.812 7.14044 53.0955 8.02264 53.2473C8.90613 53.3925 9.79925 53.4713 10.6945 53.4831C11.1066 53.4921 11.5116 53.4973 11.9198 53.4973C12.4074 53.5 12.8905 53.5 13.3794 53.5H147.513C147.992 53.5 148.479 53.5 148.958 53.4973C149.364 53.4973 149.781 53.4921 150.187 53.4831C151.081 53.4719 151.972 53.3931 152.854 53.2473C153.739 53.0945 154.597 52.811 155.398 52.4063C156.196 52.0011 156.924 51.4705 157.555 50.8347C158.189 50.2043 158.721 49.4779 159.13 48.6823C159.533 47.8828 159.811 47.0266 159.956 46.1432C160.104 45.2609 160.187 44.3687 160.203 43.474C160.208 43.0599 160.208 42.6588 160.208 42.2448C160.219 41.7604 160.219 41.2787 160.219 40.7864V12.8815C160.219 12.3932 160.219 11.9089 160.208 11.4258C160.208 11.0169 160.208 10.6068 160.203 10.1979C160.187 9.30324 160.104 8.41099 159.956 7.5286C159.811 6.64572 159.532 5.79001 159.13 4.99084C158.307 3.38694 157.002 2.08138 155.398 1.25777C154.597 0.8541 153.739 0.572331 152.854 0.421771C151.973 0.274814 151.081 0.196021 150.187 0.186091C149.781 0.179584 149.364 0.171771 148.958 0.169171C148.479 0.166504 147.992 0.166504 147.513 0.166504V0.166677Z" fill="#A6A6A6"/>
<path id="Vector_2" d="M11.9263 52.3335C11.5201 52.3335 11.1237 52.3283 10.7206 52.3192C9.88565 52.3083 9.05264 52.2357 8.22842 52.1018C7.45987 51.9694 6.71536 51.7232 6.01943 51.3712C5.32989 51.0222 4.70097 50.5645 4.15677 50.0158C3.60469 49.4735 3.14506 48.8445 2.79609 48.1538C2.44327 47.4585 2.1991 46.7134 2.07209 45.9442C1.93492 45.1176 1.86071 44.2819 1.85009 43.4442C1.84163 43.163 1.83057 42.2267 1.83057 42.2267V11.4259C1.83057 11.4259 1.84235 10.5041 1.85015 10.2332C1.86032 9.3968 1.9341 8.56237 2.07086 7.73714C2.19811 6.96583 2.44247 6.21849 2.79547 5.521C3.14316 4.83075 3.60024 4.20131 4.14899 3.65707C4.69713 3.10766 5.32806 2.64763 6.01878 2.29378C6.71311 1.94295 7.45621 1.69847 8.22321 1.56852C9.05014 1.43328 9.88603 1.36016 10.7239 1.34978L11.927 1.3335H148.952L150.169 1.35043C150.999 1.3603 151.828 1.43276 152.647 1.56722C153.422 1.6988 154.173 1.94498 154.875 2.29768C156.259 3.01081 157.385 4.13905 158.095 5.52426C158.442 6.21693 158.683 6.95817 158.809 7.72282C158.947 8.55482 159.024 9.39581 159.04 10.2391C159.044 10.6167 159.044 11.0223 159.044 11.4259C159.055 11.9259 159.055 12.4019 159.055 12.8817V40.7866C159.055 41.271 159.055 41.7436 159.044 42.2202C159.044 42.6538 159.044 43.051 159.039 43.4598C159.023 44.288 158.947 45.114 158.811 45.9311C158.687 46.7058 158.444 47.4568 158.091 48.1578C157.74 48.841 157.283 49.4645 156.737 50.0054C156.192 50.5571 155.562 51.0174 154.871 51.3687C154.171 51.7234 153.421 51.9705 152.647 52.1018C151.823 52.2364 150.99 52.3091 150.155 52.3192C149.764 52.3283 149.355 52.3335 148.958 52.3335L147.513 52.3362L11.9263 52.3335Z" fill="black"/>
</g>
<g id="&#60;Group&#62;">
<g id="&#60;Group&#62;_2">
<g id="&#60;Group&#62;_3">
<path id="&#60;Path&#62;" d="M33.6917 27.235C33.706 26.1221 34.0016 25.0309 34.551 24.063C35.1003 23.0951 35.8856 22.2818 36.8337 21.6989C36.2314 20.8387 35.4368 20.1308 34.5131 19.6314C33.5893 19.132 32.5618 18.8548 31.5122 18.822C29.2732 18.587 27.1026 20.1618 25.9617 20.1618C24.7986 20.1618 23.042 18.8453 21.1503 18.8843C19.9268 18.9238 18.7343 19.2796 17.6891 19.917C16.644 20.5544 15.7817 21.4517 15.1864 22.5214C12.6078 26.986 14.5312 33.5474 17.0014 37.1562C18.2372 38.9233 19.6816 40.8973 21.5715 40.8273C23.421 40.7506 24.1117 39.648 26.3441 39.648C28.5558 39.648 29.2038 40.8273 31.1321 40.7828C33.1166 40.7505 34.3669 39.0078 35.5594 37.2239C36.4474 35.9648 37.1307 34.5731 37.584 33.1006C36.431 32.6129 35.4471 31.7967 34.755 30.7536C34.0628 29.7106 33.693 28.4868 33.6917 27.235V27.235Z" fill="white"/>
<path id="&#60;Path&#62;_2" d="M30.0499 16.4486C31.132 15.1496 31.665 13.4801 31.536 11.7944C29.8829 11.9681 28.3558 12.7581 27.2592 14.0072C26.723 14.6175 26.3123 15.3274 26.0507 16.0964C25.789 16.8654 25.6815 17.6785 25.7342 18.4891C26.5611 18.4976 27.3791 18.3184 28.1266 17.9649C28.8742 17.6115 29.5318 17.093 30.0499 16.4486Z" fill="white"/>
</g>
</g>
<g id="Group_4">
<path id="Vector_3" d="M57.0693 36.3531H50.7581L49.2425 40.8283H46.5693L52.5472 24.271H55.3245L61.3024 40.8283H58.5836L57.0693 36.3531ZM51.4118 34.288H56.4144L53.9483 27.0249H53.8793L51.4118 34.288Z" fill="white"/>
<path id="Vector_4" d="M74.2129 34.7927C74.2129 38.544 72.2051 40.9541 69.1752 40.9541C68.4076 40.9943 67.6443 40.8175 66.9726 40.444C66.3008 40.0704 65.7479 39.5153 65.377 38.8421H65.3197V44.8213H62.8418V28.7562H65.2403V30.764H65.2858C65.6738 30.0941 66.2361 29.5418 66.9129 29.166C67.5898 28.7902 68.3558 28.605 69.1296 28.6299C72.1933 28.6299 74.2129 31.0518 74.2129 34.7927ZM71.6661 34.7927C71.6661 32.3487 70.403 30.7419 68.4759 30.7419C66.5827 30.7419 65.3093 32.3825 65.3093 34.7927C65.3093 37.225 66.5827 38.8539 68.4759 38.8539C70.403 38.8539 71.6661 37.2588 71.6661 34.7927Z" fill="white"/>
<path id="Vector_5" d="M87.4991 34.7927C87.4991 38.544 85.4912 40.9541 82.4613 40.9541C81.6938 40.9943 80.9304 40.8175 80.2587 40.444C79.587 40.0704 79.034 39.5153 78.6631 38.8421H78.6058V44.8213H76.1279V28.7562H78.5264V30.764H78.5719C78.9599 30.0941 79.5222 29.5418 80.199 29.166C80.8759 28.7902 81.6419 28.605 82.4157 28.6299C85.4795 28.6299 87.4991 31.0518 87.4991 34.7927ZM84.9522 34.7927C84.9522 32.3487 83.6892 30.7419 81.7621 30.7419C79.8688 30.7419 78.5954 32.3825 78.5954 34.7927C78.5954 37.225 79.8688 38.8539 81.7621 38.8539C83.6892 38.8539 84.9522 37.2588 84.9522 34.7927H84.9522Z" fill="white"/>
<path id="Vector_6" d="M96.2806 36.215C96.4642 37.8569 98.0593 38.935 100.239 38.935C102.328 38.935 103.83 37.8569 103.83 36.3764C103.83 35.0912 102.924 34.3217 100.778 33.7944L98.6322 33.2774C95.5919 32.5431 94.1804 31.1212 94.1804 28.8139C94.1804 25.9571 96.67 23.9949 100.205 23.9949C103.704 23.9949 106.102 25.9571 106.183 28.8139H103.682C103.532 27.1615 102.166 26.1642 100.17 26.1642C98.1738 26.1642 96.808 27.1733 96.808 28.642C96.808 29.8126 97.6804 30.5014 99.8145 31.0287L101.639 31.4766C105.036 32.28 106.447 33.6446 106.447 36.0664C106.447 39.1641 103.98 41.1042 100.055 41.1042C96.3835 41.1042 93.9043 39.2097 93.7441 36.2149L96.2806 36.215Z" fill="white"/>
<path id="Vector_7" d="M111.795 25.8999V28.7567H114.09V30.7189H111.795V37.3739C111.795 38.4077 112.254 38.8895 113.263 38.8895C113.536 38.8847 113.808 38.8656 114.078 38.8322V40.7827C113.625 40.8674 113.164 40.9058 112.702 40.8973C110.258 40.8973 109.305 39.9793 109.305 37.6381V30.7189H107.55V28.7567H109.305V25.8999H111.795Z" fill="white"/>
<path id="Vector_8" d="M115.42 34.793C115.42 30.9949 117.657 28.6082 121.145 28.6082C124.645 28.6082 126.872 30.9948 126.872 34.793C126.872 38.6016 124.657 40.9779 121.145 40.9779C117.635 40.9779 115.42 38.6016 115.42 34.793ZM124.347 34.793C124.347 32.1876 123.153 30.6498 121.145 30.6498C119.137 30.6498 117.945 32.1993 117.945 34.793C117.945 37.4089 119.137 38.935 121.145 38.935C123.153 38.935 124.347 37.4089 124.347 34.793H124.347Z" fill="white"/>
<path id="Vector_9" d="M128.915 28.7561H131.278V30.8108H131.335C131.495 30.1691 131.871 29.6019 132.4 29.2048C132.929 28.8076 133.578 28.6045 134.239 28.6298C134.524 28.6288 134.809 28.6598 135.088 28.7222V31.0399C134.727 30.9298 134.351 30.8792 133.974 30.8902C133.614 30.8756 133.256 30.9391 132.922 31.0763C132.589 31.2134 132.29 31.4211 132.045 31.6849C131.799 31.9488 131.614 32.2626 131.501 32.6048C131.389 32.9471 131.352 33.3096 131.392 33.6675V40.8277H128.915L128.915 28.7561Z" fill="white"/>
<path id="Vector_10" d="M146.512 37.2826C146.179 39.474 144.045 40.9779 141.314 40.9779C137.803 40.9779 135.623 38.6251 135.623 34.8503C135.623 31.0639 137.814 28.6082 141.21 28.6082C144.55 28.6082 146.65 30.9024 146.65 34.5626V35.4115H138.124V35.5613C138.085 36.0055 138.141 36.4531 138.288 36.8742C138.434 37.2953 138.669 37.6804 138.976 38.0038C139.284 38.3272 139.656 38.5815 140.069 38.7499C140.482 38.9183 140.926 38.9969 141.372 38.9805C141.957 39.0354 142.545 38.8998 143.047 38.5939C143.549 38.2879 143.94 37.8281 144.16 37.2826L146.512 37.2826ZM138.136 33.6798H144.171C144.193 33.2803 144.133 32.8806 143.993 32.5056C143.854 32.1307 143.638 31.7886 143.36 31.5009C143.082 31.2132 142.748 30.9861 142.378 30.8338C142.008 30.6815 141.61 30.6074 141.21 30.616C140.807 30.6136 140.407 30.6911 140.033 30.8441C139.66 30.9971 139.321 31.2225 139.035 31.5073C138.749 31.7922 138.522 32.1308 138.368 32.5037C138.214 32.8765 138.135 33.2763 138.136 33.6798V33.6798Z" fill="white"/>
</g>
</g>
</g>
<g id="&#60;Group&#62;_4">
<g id="Group_5">
<path id="Vector_11" d="M51.1012 11.8074C51.6207 11.7701 52.142 11.8486 52.6275 12.0371C53.113 12.2257 53.5505 12.5197 53.9087 12.8979C54.2668 13.276 54.5365 13.729 54.6984 14.224C54.8602 14.719 54.9102 15.2438 54.8447 15.7605C54.8447 18.3022 53.471 19.7632 51.1012 19.7632H48.2275V11.8074H51.1012ZM49.4632 18.638H50.9632C51.3344 18.6602 51.7059 18.5994 52.0506 18.4599C52.3953 18.3204 52.7046 18.1058 52.9559 17.8317C53.2073 17.5576 53.3943 17.2309 53.5035 16.8754C53.6126 16.52 53.6411 16.1446 53.5869 15.7767C53.6372 15.4103 53.6058 15.0372 53.495 14.6843C53.3841 14.3315 53.1966 14.0075 52.9459 13.7355C52.6951 13.4636 52.3873 13.2506 52.0446 13.1116C51.7018 12.9726 51.3325 12.9112 50.9632 12.9316H49.4632V18.638Z" fill="white"/>
<path id="Vector_12" d="M56.2404 16.7585C56.2027 16.3639 56.2478 15.9658 56.373 15.5897C56.4981 15.2136 56.7004 14.8679 56.967 14.5745C57.2336 14.2812 57.5585 14.0469 57.921 13.8865C58.2835 13.7262 58.6755 13.6433 59.0718 13.6433C59.4682 13.6433 59.8602 13.7262 60.2226 13.8865C60.5851 14.0469 60.9101 14.2812 61.1766 14.5745C61.4432 14.8679 61.6456 15.2136 61.7707 15.5897C61.8958 15.9658 61.9409 16.3639 61.9032 16.7585C61.9417 17.1534 61.8971 17.5521 61.7723 17.9288C61.6475 18.3055 61.4453 18.6519 61.1786 18.9458C60.912 19.2397 60.5868 19.4745 60.2239 19.6352C59.8611 19.796 59.4687 19.879 59.0718 19.879C58.675 19.879 58.2826 19.796 57.9197 19.6352C57.5569 19.4745 57.2317 19.2397 56.965 18.9458C56.6984 18.6519 56.4962 18.3055 56.3714 17.9288C56.2466 17.5521 56.202 17.1534 56.2404 16.7585V16.7585ZM60.6844 16.7585C60.6844 15.4571 60.0998 14.696 59.0738 14.696C58.0438 14.696 57.4644 15.4571 57.4644 16.7585C57.4644 18.0703 58.0439 18.8255 59.0738 18.8255C60.0998 18.8255 60.6845 18.0651 60.6845 16.7585H60.6844Z" fill="white"/>
<path id="Vector_13" d="M69.4307 19.7632H68.2015L66.9606 15.3413H66.8669L65.6312 19.7632H64.4137L62.7588 13.7593H63.9606L65.0361 18.3406H65.1247L66.3591 13.7593H67.4958L68.7301 18.3406H68.8239L69.8942 13.7593H71.0791L69.4307 19.7632Z" fill="white"/>
<path id="Vector_14" d="M72.4712 13.7588H73.6118V14.7125H73.7004C73.8506 14.37 74.1039 14.0828 74.4251 13.8911C74.7462 13.6993 75.1192 13.6126 75.492 13.6429C75.7842 13.6209 76.0775 13.665 76.3503 13.7718C76.6231 13.8785 76.8684 14.0454 77.0679 14.2598C77.2675 14.4743 77.4163 14.7309 77.5032 15.0106C77.5902 15.2904 77.613 15.5861 77.5701 15.8759V19.7626H76.3853V16.1735C76.3853 15.2086 75.966 14.7288 75.0897 14.7288C74.8913 14.7196 74.6933 14.7533 74.5093 14.8278C74.3252 14.9022 74.1594 15.0156 74.0232 15.1601C73.8871 15.3046 73.7837 15.4769 73.7204 15.665C73.657 15.8532 73.6351 16.0529 73.6561 16.2503V19.7627H72.4712L72.4712 13.7588Z" fill="white"/>
<path id="Vector_15" d="M79.458 11.4155H80.6429V19.7632H79.458V11.4155Z" fill="white"/>
<path id="Vector_16" d="M82.2897 16.7586C82.252 16.364 82.2972 15.9659 82.4223 15.5898C82.5475 15.2137 82.7499 14.8679 83.0165 14.5746C83.2831 14.2812 83.6081 14.0469 83.9706 13.8865C84.333 13.7262 84.7251 13.6433 85.1214 13.6433C85.5178 13.6433 85.9098 13.7262 86.2723 13.8865C86.6348 14.0469 86.9598 14.2812 87.2264 14.5746C87.493 14.8679 87.6954 15.2137 87.8205 15.5898C87.9457 15.9659 87.9909 16.364 87.9531 16.7586C87.9916 17.1536 87.9469 17.5522 87.8221 17.9289C87.6973 18.3056 87.495 18.652 87.2283 18.9459C86.9616 19.2398 86.6364 19.4746 86.2736 19.6353C85.9107 19.796 85.5183 19.8791 85.1214 19.8791C84.7246 19.8791 84.3321 19.796 83.9693 19.6353C83.6064 19.4746 83.2812 19.2398 83.0146 18.9459C82.7479 18.652 82.5456 18.3056 82.4208 17.9289C82.296 17.5522 82.2513 17.1536 82.2897 16.7586V16.7586ZM86.7337 16.7586C86.7337 15.4572 86.1491 14.6961 85.1231 14.6961C84.0931 14.6961 83.5137 15.4572 83.5137 16.7586C83.5137 18.0705 84.0932 18.8257 85.1231 18.8257C86.1491 18.8256 86.7337 18.0652 86.7337 16.7586H86.7337Z" fill="white"/>
<path id="Vector_17" d="M89.2012 18.0652C89.2012 16.9844 90.0059 16.3614 91.4342 16.2729L93.0605 16.1791V15.6609C93.0605 15.0268 92.6413 14.6687 91.8314 14.6687C91.1699 14.6687 90.7116 14.9115 90.5801 15.336H89.4329C89.554 14.3048 90.5241 13.6433 91.8861 13.6433C93.3913 13.6433 94.2402 14.3926 94.2402 15.6609V19.7631H93.0996V18.9194H93.0059C92.8156 19.222 92.5484 19.4687 92.2315 19.6344C91.9147 19.8 91.5596 19.8785 91.2025 19.862C90.9504 19.8882 90.6957 19.8613 90.4547 19.7831C90.2137 19.7048 89.9917 19.5769 89.8032 19.4076C89.6146 19.2383 89.4636 19.0314 89.3599 18.8002C89.2562 18.569 89.2022 18.3186 89.2012 18.0652V18.0652ZM93.0605 17.5522V17.0502L91.5944 17.144C90.7676 17.1993 90.3926 17.4805 90.3926 18.0098C90.3926 18.5502 90.8613 18.8646 91.5059 18.8646C91.6948 18.8838 91.8855 18.8647 92.0669 18.8086C92.2482 18.7525 92.4164 18.6604 92.5615 18.538C92.7065 18.4155 92.8254 18.2651 92.9112 18.0958C92.9969 17.9264 93.0477 17.7415 93.0605 17.5522V17.5522Z" fill="white"/>
<path id="Vector_18" d="M95.7974 16.7586C95.7974 14.8615 96.7726 13.6597 98.2896 13.6597C98.6648 13.6424 99.0372 13.7323 99.3632 13.9188C99.6892 14.1053 99.9554 14.3808 100.131 14.713H100.219V11.4155H101.404V19.7632H100.269V18.8146H100.175C99.9862 19.1446 99.7107 19.4166 99.3783 19.6013C99.046 19.7859 98.6695 19.8761 98.2896 19.8621C96.7622 19.8622 95.7974 18.6603 95.7974 16.7586ZM97.0214 16.7586C97.0214 18.0321 97.6216 18.7984 98.6255 18.7984C99.6242 18.7984 100.241 18.021 100.241 16.7639C100.241 15.5126 99.6177 14.7241 98.6255 14.7241C97.6281 14.7241 97.0213 15.4956 97.0213 16.7586H97.0214Z" fill="white"/>
<path id="Vector_19" d="M106.306 16.7585C106.269 16.3639 106.314 15.9658 106.439 15.5897C106.564 15.2136 106.766 14.8679 107.033 14.5745C107.3 14.2812 107.624 14.0469 107.987 13.8865C108.349 13.7262 108.741 13.6433 109.138 13.6433C109.534 13.6433 109.926 13.7262 110.289 13.8865C110.651 14.0469 110.976 14.2812 111.243 14.5745C111.509 14.8679 111.711 15.2136 111.837 15.5897C111.962 15.9658 112.007 16.3639 111.969 16.7585C112.008 17.1534 111.963 17.5521 111.838 17.9288C111.713 18.3055 111.511 18.6519 111.245 18.9458C110.978 19.2397 110.653 19.4745 110.29 19.6352C109.927 19.796 109.535 19.879 109.138 19.879C108.741 19.879 108.348 19.796 107.986 19.6352C107.623 19.4745 107.298 19.2397 107.031 18.9458C106.764 18.6519 106.562 18.3055 106.437 17.9288C106.312 17.5521 106.268 17.1534 106.306 16.7585V16.7585ZM110.75 16.7585C110.75 15.4571 110.166 14.696 109.14 14.696C108.11 14.696 107.53 15.4571 107.53 16.7585C107.53 18.0703 108.11 18.8255 109.14 18.8255C110.166 18.8255 110.75 18.0651 110.75 16.7585Z" fill="white"/>
<path id="Vector_20" d="M113.559 13.7588H114.7V14.7125H114.788C114.938 14.37 115.192 14.0828 115.513 13.8911C115.834 13.6993 116.207 13.6126 116.58 13.6429C116.872 13.6209 117.165 13.665 117.438 13.7718C117.711 13.8785 117.956 14.0454 118.156 14.2598C118.355 14.4743 118.504 14.7309 118.591 15.0106C118.678 15.2904 118.701 15.5861 118.658 15.8759V19.7626H117.473V16.1735C117.473 15.2086 117.054 14.7288 116.178 14.7288C115.979 14.7196 115.781 14.7533 115.597 14.8278C115.413 14.9022 115.247 15.0156 115.111 15.1601C114.975 15.3046 114.872 15.4769 114.808 15.665C114.745 15.8532 114.723 16.0529 114.744 16.2503V19.7627H113.559V13.7588Z" fill="white"/>
<path id="Vector_21" d="M125.353 12.2644V13.7865H126.654V14.7846H125.353V17.8718C125.353 18.5007 125.612 18.7761 126.202 18.7761C126.353 18.7756 126.504 18.7665 126.654 18.7488V19.7358C126.441 19.7738 126.226 19.7941 126.009 19.7963C124.692 19.7963 124.167 19.3328 124.167 18.1752V14.7845H123.214V13.7865H124.167V12.2644H125.353Z" fill="white"/>
<path id="Vector_22" d="M128.272 11.4155H129.447V14.7241H129.541C129.698 14.3784 129.958 14.0896 130.286 13.8971C130.614 13.7047 130.993 13.6179 131.371 13.6486C131.662 13.6328 131.952 13.6813 132.222 13.7907C132.492 13.9001 132.734 14.0677 132.932 14.2814C133.129 14.4952 133.277 14.75 133.365 15.0275C133.452 15.305 133.478 15.5984 133.439 15.8869V19.7632H132.253V16.1792C132.253 15.2202 131.806 14.7345 130.969 14.7345C130.765 14.7178 130.561 14.7458 130.369 14.8166C130.177 14.8873 130.003 14.9991 129.859 15.1441C129.715 15.289 129.605 15.4637 129.535 15.6559C129.466 15.8481 129.439 16.0531 129.457 16.2567V19.7632H128.273L128.272 11.4155Z" fill="white"/>
<path id="Vector_23" d="M140.348 18.1421C140.187 18.6908 139.839 19.1655 139.363 19.483C138.887 19.8005 138.315 19.9407 137.747 19.8791C137.351 19.8895 136.958 19.8138 136.595 19.6571C136.231 19.5003 135.907 19.2665 135.643 18.9716C135.379 18.6768 135.182 18.328 135.067 17.9496C134.951 17.5712 134.919 17.1721 134.973 16.7801C134.921 16.3869 134.953 15.987 135.068 15.6075C135.184 15.2279 135.379 14.8776 135.642 14.5801C135.904 14.2827 136.228 14.0451 136.59 13.8835C136.952 13.7219 137.345 13.64 137.742 13.6434C139.412 13.6434 140.42 14.7847 140.42 16.6701V17.0835H136.18V17.1499C136.162 17.3703 136.19 17.592 136.262 17.801C136.334 18.01 136.449 18.2016 136.599 18.3636C136.75 18.5255 136.933 18.6542 137.136 18.7414C137.339 18.8286 137.558 18.8724 137.779 18.8699C138.063 18.904 138.35 18.8529 138.604 18.7233C138.859 18.5937 139.069 18.3914 139.208 18.1421L140.348 18.1421ZM136.18 16.2072H139.213C139.228 16.0057 139.2 15.8033 139.133 15.613C139.065 15.4227 138.958 15.2488 138.818 15.1023C138.679 14.9558 138.511 14.8401 138.324 14.7625C138.138 14.6849 137.937 14.6472 137.735 14.6519C137.53 14.6493 137.327 14.6878 137.137 14.765C136.947 14.8423 136.775 14.9568 136.63 15.1017C136.485 15.2467 136.37 15.4192 136.293 15.609C136.216 15.7989 136.178 16.0023 136.18 16.2072H136.18Z" fill="white"/>
</g>
</g>
</g>
</svg>
