<svg width="181" height="54" viewBox="0 0 181 54" fill="none" xmlns="http://www.w3.org/2000/svg">
<g clip-path="url(#clip0_1682_4510)">
<path d="M174.219 0.166748H7.55192C3.87002 0.166748 0.885254 3.15152 0.885254 6.83341V46.8334C0.885254 50.5153 3.87002 53.5001 7.55192 53.5001H174.219C177.9 53.5001 180.885 50.5153 180.885 46.8334V6.83341C180.885 3.15152 177.9 0.166748 174.219 0.166748Z" fill="black"/>
<path d="M174.219 1.23341C175.704 1.23341 177.128 1.82341 178.178 2.87362C179.229 3.92382 179.819 5.3482 179.819 6.83341V46.8334C179.819 48.3186 179.229 49.743 178.178 50.7932C177.128 51.8434 175.704 52.4334 174.219 52.4334H7.55192C6.06671 52.4334 4.64233 51.8434 3.59212 50.7932C2.54192 49.743 1.95192 48.3186 1.95192 46.8334V6.83341C1.95192 5.3482 2.54192 3.92382 3.59212 2.87362C4.64233 1.82341 6.06671 1.23341 7.55192 1.23341H174.219ZM174.219 0.166748H7.55192C5.78381 0.166748 4.08812 0.869127 2.83788 2.11937C1.58763 3.36961 0.885254 5.0653 0.885254 6.83341V46.8334C0.885254 48.6015 1.58763 50.2972 2.83788 51.5475C4.08812 52.7977 5.78381 53.5001 7.55192 53.5001H174.219C175.987 53.5001 177.682 52.7977 178.933 51.5475C180.183 50.2972 180.885 48.6015 180.885 46.8334V6.83341C180.885 5.0653 180.183 3.36961 178.933 2.11937C177.682 0.869127 175.987 0.166748 174.219 0.166748Z" fill="#A6A6A6"/>
<path d="M60.0527 14.1478H62.8406V18.0159C62.4223 18.1578 61.9913 18.2633 61.5476 18.3324C61.1075 18.4015 60.6147 18.436 60.0691 18.436C59.2398 18.436 58.5397 18.2705 57.9686 17.9395C57.4012 17.6086 56.9702 17.1376 56.6756 16.5265C56.381 15.9118 56.2337 15.1826 56.2337 14.3388C56.2337 13.5131 56.3956 12.793 56.7193 12.1783C57.0466 11.5636 57.5176 11.0872 58.1323 10.7489C58.7506 10.407 59.4926 10.2361 60.3583 10.2361C60.802 10.2361 61.2221 10.2779 61.6185 10.3615C62.0186 10.4416 62.3896 10.5561 62.7315 10.7053L62.3769 11.5127C62.0823 11.3854 61.7567 11.2763 61.4003 11.1854C61.0475 11.0944 60.682 11.049 60.3037 11.049C59.6526 11.049 59.0943 11.1835 58.6288 11.4527C58.1669 11.7218 57.8122 12.1019 57.5649 12.5929C57.3212 13.0839 57.1994 13.6659 57.1994 14.3388C57.1994 15.0044 57.3067 15.5845 57.5213 16.0791C57.7359 16.5702 58.0705 16.9521 58.5251 17.2248C58.9798 17.4976 59.5654 17.634 60.2819 17.634C60.642 17.634 60.9511 17.614 61.2093 17.574C61.4676 17.5304 61.7022 17.4794 61.9131 17.4213V14.9771H60.0527V14.1478ZM69.2129 18.3269H64.7719V10.3506H69.2129V11.169H65.6994V13.7495H69.011V14.557H65.6994V17.5085H69.2129V18.3269ZM73.4302 18.3269H72.4973V11.169H69.9876V10.3506H75.9289V11.169H73.4302V18.3269ZM80.0371 18.3269V10.3506H80.9645V18.3269H80.0371ZM85.6074 18.3269H84.6744V11.169H82.1648V10.3506H88.1061V11.169H85.6074V18.3269ZM99.1321 14.3279C99.1321 14.9425 99.0539 15.5027 98.8975 16.0082C98.7411 16.5101 98.5084 16.943 98.1992 17.3067C97.8937 17.6668 97.5136 17.945 97.0589 18.1414C96.6043 18.3378 96.0769 18.436 95.4768 18.436C94.8585 18.436 94.3184 18.3378 93.8564 18.1414C93.3982 17.945 93.0162 17.6649 92.7107 17.3012C92.4088 16.9375 92.1815 16.5029 92.0288 15.9973C91.8796 15.4917 91.8051 14.9316 91.8051 14.3169C91.8051 13.5022 91.9397 12.7875 92.2088 12.1728C92.478 11.5582 92.8853 11.0799 93.4309 10.738C93.9801 10.3961 94.6675 10.2251 95.4932 10.2251C96.2824 10.2251 96.9462 10.3943 97.4845 10.7325C98.0264 11.0708 98.4356 11.5473 98.712 12.1619C98.9921 12.773 99.1321 13.4949 99.1321 14.3279ZM92.7817 14.3279C92.7817 15.0044 92.878 15.5899 93.0708 16.0846C93.2636 16.5793 93.5582 16.9612 93.9546 17.2303C94.3547 17.4995 94.8621 17.634 95.4768 17.634C96.0951 17.634 96.6007 17.4995 96.9935 17.2303C97.3899 16.9612 97.6827 16.5793 97.8718 16.0846C98.061 15.5899 98.1555 15.0044 98.1555 14.3279C98.1555 13.2985 97.9391 12.4947 97.5063 11.9164C97.0771 11.3345 96.4061 11.0435 95.4932 11.0435C94.8748 11.0435 94.3656 11.1763 93.9655 11.4418C93.5655 11.7073 93.2672 12.0856 93.0708 12.5766C92.878 13.0639 92.7817 13.6477 92.7817 14.3279ZM107.147 18.3269H106.077L101.729 11.6273H101.685C101.696 11.8055 101.709 12.0092 101.724 12.2383C101.738 12.4638 101.749 12.7057 101.756 12.9639C101.767 13.2185 101.773 13.4786 101.773 13.7441V18.3269H100.911V10.3506H101.975L106.306 17.0284H106.345C106.337 16.9011 106.328 16.7211 106.317 16.4883C106.306 16.2519 106.295 15.9991 106.285 15.73C106.277 15.4572 106.274 15.2044 106.274 14.9716V10.3506H107.147V18.3269Z" fill="white"/>
<path d="M60.0527 14.1478V14.0145H59.9194V14.1478H60.0527ZM62.8406 14.1478H62.9739V14.0145H62.8406V14.1478ZM62.8406 18.0159L62.8834 18.1422L62.9739 18.1115V18.0159H62.8406ZM61.5476 18.3324L61.5271 18.2006L61.5269 18.2006L61.5476 18.3324ZM57.9686 17.9395L57.9015 18.0547L57.9018 18.0549L57.9686 17.9395ZM56.6756 16.5265L56.5554 16.5841L56.5555 16.5844L56.6756 16.5265ZM56.7193 12.1783L56.6016 12.1156L56.6013 12.1162L56.7193 12.1783ZM58.1323 10.7489L58.1966 10.8657L58.1968 10.8656L58.1323 10.7489ZM61.6185 10.3615L61.591 10.492L61.5924 10.4923L61.6185 10.3615ZM62.7315 10.7053L62.8536 10.7589L62.9073 10.6365L62.7848 10.583L62.7315 10.7053ZM62.3769 11.5127L62.324 11.6351L62.4457 11.6877L62.499 11.5663L62.3769 11.5127ZM61.4003 11.1854L61.367 11.3145L61.3673 11.3146L61.4003 11.1854ZM58.6288 11.4527L58.5621 11.3373L58.5617 11.3375L58.6288 11.4527ZM57.5649 12.5929L57.4458 12.533L57.4455 12.5337L57.5649 12.5929ZM57.5213 16.0791L57.399 16.1322L57.3991 16.1325L57.5213 16.0791ZM61.2093 17.574L61.2298 17.7058L61.2316 17.7055L61.2093 17.574ZM61.9131 17.4213L61.9486 17.5498L62.0465 17.5228V17.4213H61.9131ZM61.9131 14.9771H62.0465V14.8438H61.9131V14.9771ZM60.0527 14.9771H59.9194V15.1104H60.0527V14.9771ZM60.0527 14.2811H62.8406V14.0145H60.0527V14.2811ZM62.7073 14.1478V18.0159H62.9739V14.1478H62.7073ZM62.7978 17.8897C62.3869 18.029 61.9634 18.1327 61.5271 18.2006L61.5681 18.4641C62.0193 18.3938 62.4578 18.2866 62.8834 18.1422L62.7978 17.8897ZM61.5269 18.2006C61.095 18.2685 60.6092 18.3027 60.0691 18.3027V18.5694C60.6201 18.5694 61.12 18.5345 61.5683 18.4641L61.5269 18.2006ZM60.0691 18.3027C59.2574 18.3027 58.5816 18.1407 58.0355 17.8242L57.9018 18.0549C58.4977 18.4003 59.2223 18.5694 60.0691 18.5694V18.3027ZM58.0358 17.8244C57.4922 17.5072 57.0792 17.0565 56.7957 16.4686L56.5555 16.5844C56.8613 17.2186 57.3103 17.7099 57.9015 18.0547L58.0358 17.8244ZM56.7959 16.4689C56.5117 15.876 56.3671 15.1673 56.3671 14.3388H56.1004C56.1004 15.1979 56.2504 15.9477 56.5554 16.5841L56.7959 16.4689ZM56.3671 14.3388C56.3671 13.5307 56.5254 12.8326 56.8373 12.2404L56.6013 12.1162C56.2658 12.7533 56.1004 13.4955 56.1004 14.3388H56.3671ZM56.837 12.241C57.152 11.6493 57.6044 11.1916 58.1966 10.8657L58.068 10.6321C57.4309 10.9827 56.9412 11.4779 56.6016 12.1156L56.837 12.241ZM58.1968 10.8656C58.7914 10.5368 59.5101 10.3694 60.3583 10.3694V10.1027C59.4751 10.1027 58.7098 10.2772 58.0678 10.6322L58.1968 10.8656ZM60.3583 10.3694C60.7936 10.3694 61.2044 10.4104 61.591 10.492L61.6461 10.2311C61.2397 10.1453 60.8104 10.1027 60.3583 10.1027V10.3694ZM61.5924 10.4923C61.984 10.5706 62.3458 10.6825 62.6782 10.8275L62.7848 10.583C62.4334 10.4298 62.0532 10.3125 61.6447 10.2308L61.5924 10.4923ZM62.6094 10.6516L62.2548 11.4591L62.499 11.5663L62.8536 10.7589L62.6094 10.6516ZM62.4298 11.3903C62.1278 11.2598 61.7955 11.1486 61.4333 11.0562L61.3673 11.3146C61.7179 11.404 62.0367 11.511 62.324 11.6351L62.4298 11.3903ZM61.4336 11.0562C61.0695 10.9624 60.6928 10.9156 60.3037 10.9156V11.1823C60.6712 11.1823 61.0255 11.2264 61.367 11.3145L61.4336 11.0562ZM60.3037 10.9156C59.6341 10.9156 59.0518 11.0541 58.5621 11.3373L58.6955 11.5681C59.1369 11.3129 59.6712 11.1823 60.3037 11.1823V10.9156ZM58.5617 11.3375C58.0768 11.62 57.7044 12.0196 57.4458 12.533L57.684 12.6529C57.9201 12.1843 58.257 11.8237 58.6959 11.5679L58.5617 11.3375ZM57.4455 12.5337C57.1908 13.0468 57.0661 13.6499 57.0661 14.3388H57.3327C57.3327 13.6819 57.4517 13.1211 57.6844 12.6522L57.4455 12.5337ZM57.0661 14.3388C57.0661 15.0185 57.1756 15.6174 57.399 16.1322L57.6436 16.0261C57.4378 15.5516 57.3327 14.9903 57.3327 14.3388H57.0661ZM57.3991 16.1325C57.6247 16.6486 57.9779 17.052 58.4565 17.3392L58.5937 17.1105C58.1631 16.8521 57.8471 16.4917 57.6435 16.0257L57.3991 16.1325ZM58.4565 17.3392C58.938 17.628 59.5494 17.7674 60.2819 17.7674V17.5007C59.5813 17.5007 59.0216 17.3672 58.5937 17.1105L58.4565 17.3392ZM60.2819 17.7674C60.6464 17.7674 60.9628 17.7471 61.2298 17.7058L61.1889 17.4423C60.9394 17.4809 60.6375 17.5007 60.2819 17.5007V17.7674ZM61.2316 17.7055C61.4934 17.6612 61.7325 17.6094 61.9486 17.5498L61.8777 17.2927C61.6718 17.3495 61.4417 17.3995 61.1871 17.4425L61.2316 17.7055ZM62.0465 17.4213V14.9771H61.7798V17.4213H62.0465ZM61.9131 14.8438H60.0527V15.1104H61.9131V14.8438ZM60.1861 14.9771V14.1478H59.9194V14.9771H60.1861ZM69.2129 18.3269V18.4602H69.3462V18.3269H69.2129ZM64.7719 18.3269H64.6386V18.4602H64.7719V18.3269ZM64.7719 10.3506V10.2173H64.6386V10.3506H64.7719ZM69.2129 10.3506H69.3462V10.2173H69.2129V10.3506ZM69.2129 11.169V11.3023H69.3462V11.169H69.2129ZM65.6994 11.169V11.0357H65.5661V11.169H65.6994ZM65.6994 13.7495H65.5661V13.8829H65.6994V13.7495ZM69.011 13.7495H69.1444V13.6162H69.011V13.7495ZM69.011 14.557V14.6903H69.1444V14.557H69.011ZM65.6994 14.557V14.4237H65.5661V14.557H65.6994ZM65.6994 17.5085H65.5661V17.6419H65.6994V17.5085ZM69.2129 17.5085H69.3462V17.3752H69.2129V17.5085ZM69.2129 18.1936H64.7719V18.4602H69.2129V18.1936ZM64.9053 18.3269V10.3506H64.6386V18.3269H64.9053ZM64.7719 10.484H69.2129V10.2173H64.7719V10.484ZM69.0796 10.3506V11.169H69.3462V10.3506H69.0796ZM69.2129 11.0357H65.6994V11.3023H69.2129V11.0357ZM65.5661 11.169V13.7495H65.8327V11.169H65.5661ZM65.6994 13.8829H69.011V13.6162H65.6994V13.8829ZM68.8777 13.7495V14.557H69.1444V13.7495H68.8777ZM69.011 14.4237H65.6994V14.6903H69.011V14.4237ZM65.5661 14.557V17.5085H65.8327V14.557H65.5661ZM65.6994 17.6419H69.2129V17.3752H65.6994V17.6419ZM69.0796 17.5085V18.3269H69.3462V17.5085H69.0796ZM73.4302 18.3269V18.4602H73.5635V18.3269H73.4302ZM72.4973 18.3269H72.3639V18.4602H72.4973V18.3269ZM72.4973 11.169H72.6306V11.0357H72.4973V11.169ZM69.9876 11.169H69.8543V11.3023H69.9876V11.169ZM69.9876 10.3506V10.2173H69.8543V10.3506H69.9876ZM75.9289 10.3506H76.0622V10.2173H75.9289V10.3506ZM75.9289 11.169V11.3023H76.0622V11.169H75.9289ZM73.4302 11.169V11.0357H73.2968V11.169H73.4302ZM73.4302 18.1936H72.4973V18.4602H73.4302V18.1936ZM72.6306 18.3269V11.169H72.3639V18.3269H72.6306ZM72.4973 11.0357H69.9876V11.3023H72.4973V11.0357ZM70.121 11.169V10.3506H69.8543V11.169H70.121ZM69.9876 10.484H75.9289V10.2173H69.9876V10.484ZM75.7956 10.3506V11.169H76.0622V10.3506H75.7956ZM75.9289 11.0357H73.4302V11.3023H75.9289V11.0357ZM73.2968 11.169V18.3269H73.5635V11.169H73.2968ZM80.0371 18.3269H79.9037V18.4602H80.0371V18.3269ZM80.0371 10.3506V10.2173H79.9037V10.3506H80.0371ZM80.9645 10.3506H81.0979V10.2173H80.9645V10.3506ZM80.9645 18.3269V18.4602H81.0979V18.3269H80.9645ZM80.1704 18.3269V10.3506H79.9037V18.3269H80.1704ZM80.0371 10.484H80.9645V10.2173H80.0371V10.484ZM80.8312 10.3506V18.3269H81.0979V10.3506H80.8312ZM80.9645 18.1936H80.0371V18.4602H80.9645V18.1936ZM85.6074 18.3269V18.4602H85.7407V18.3269H85.6074ZM84.6744 18.3269H84.5411V18.4602H84.6744V18.3269ZM84.6744 11.169H84.8078V11.0357H84.6744V11.169ZM82.1648 11.169H82.0315V11.3023H82.1648V11.169ZM82.1648 10.3506V10.2173H82.0315V10.3506H82.1648ZM88.1061 10.3506H88.2394V10.2173H88.1061V10.3506ZM88.1061 11.169V11.3023H88.2394V11.169H88.1061ZM85.6074 11.169V11.0357H85.474V11.169H85.6074ZM85.6074 18.1936H84.6744V18.4602H85.6074V18.1936ZM84.8078 18.3269V11.169H84.5411V18.3269H84.8078ZM84.6744 11.0357H82.1648V11.3023H84.6744V11.0357ZM82.2981 11.169V10.3506H82.0315V11.169H82.2981ZM82.1648 10.484H88.1061V10.2173H82.1648V10.484ZM87.9728 10.3506V11.169H88.2394V10.3506H87.9728ZM88.1061 11.0357H85.6074V11.3023H88.1061V11.0357ZM85.474 11.169V18.3269H85.7407V11.169H85.474ZM98.8975 16.0082L99.0248 16.0479L99.0249 16.0476L98.8975 16.0082ZM98.1992 17.3067L98.0976 17.2203L98.0975 17.2204L98.1992 17.3067ZM93.8564 18.1414L93.8039 18.264L93.8043 18.2641L93.8564 18.1414ZM92.7107 17.3012L92.6081 17.3864L92.6086 17.387L92.7107 17.3012ZM92.0288 15.9973L91.9009 16.035L91.9011 16.0359L92.0288 15.9973ZM93.4309 10.738L93.3604 10.6248L93.3601 10.625L93.4309 10.738ZM97.4845 10.7325L97.4136 10.8454L97.4139 10.8456L97.4845 10.7325ZM98.712 12.1619L98.5904 12.2166L98.5908 12.2175L98.712 12.1619ZM93.9546 17.2303L93.8797 17.3406L93.8802 17.3409L93.9546 17.2303ZM96.9935 17.2303L96.9186 17.12L96.9181 17.1203L96.9935 17.2303ZM97.5063 11.9164L97.399 11.9956L97.3996 11.9963L97.5063 11.9164ZM93.0708 12.5766L92.947 12.527L92.9468 12.5275L93.0708 12.5766ZM98.9988 14.3279C98.9988 14.9313 98.922 15.4779 98.7701 15.9688L99.0249 16.0476C99.1858 15.5274 99.2655 14.9538 99.2655 14.3279H98.9988ZM98.7702 15.9686C98.6186 16.4551 98.394 16.8716 98.0976 17.2203L98.3008 17.393C98.6227 17.0143 98.8636 16.5652 99.0248 16.0479L98.7702 15.9686ZM98.0975 17.2204C97.8059 17.5641 97.4428 17.8303 97.0061 18.019L97.1118 18.2638C97.5843 18.0597 97.9814 17.7694 98.3009 17.3929L98.0975 17.2204ZM97.0061 18.019C96.5713 18.2068 96.0625 18.3027 95.4768 18.3027V18.5694C96.0913 18.5694 96.6373 18.4688 97.1118 18.2638L97.0061 18.019ZM95.4768 18.3027C94.8724 18.3027 94.3507 18.2067 93.9086 18.0187L93.8043 18.2641C94.286 18.469 94.8446 18.5694 95.4768 18.5694V18.3027ZM93.909 18.0189C93.4689 17.8302 93.1043 17.5624 92.8128 17.2155L92.6086 17.387C92.9282 17.7675 93.3274 18.0598 93.8039 18.264L93.909 18.0189ZM92.8133 17.2161C92.5241 16.8676 92.3046 16.4493 92.1564 15.9587L91.9011 16.0359C92.0584 16.5565 92.2936 17.0074 92.6081 17.3864L92.8133 17.2161ZM92.1566 15.9596C92.0117 15.4681 91.9384 14.9209 91.9384 14.3169H91.6717C91.6717 14.9423 91.7476 15.5154 91.9009 16.035L92.1566 15.9596ZM91.9384 14.3169C91.9384 13.5168 92.0706 12.8209 92.3309 12.2263L92.0867 12.1194C91.8087 12.7541 91.6717 13.4877 91.6717 14.3169H91.9384ZM92.3309 12.2263C92.5898 11.6351 92.9798 11.178 93.5017 10.851L93.3601 10.625C92.7908 10.9817 92.3661 11.4812 92.0867 12.1194L92.3309 12.2263ZM93.5013 10.8512C94.0243 10.5256 94.6856 10.3585 95.4932 10.3585V10.0918C94.6494 10.0918 93.9359 10.2666 93.3604 10.6248L93.5013 10.8512ZM95.4932 10.3585C96.2634 10.3585 96.9011 10.5234 97.4136 10.8454L97.5554 10.6196C96.9913 10.2651 96.3015 10.0918 95.4932 10.0918V10.3585ZM97.4139 10.8456C97.9321 11.1691 98.3242 11.6246 98.5904 12.2166L98.8336 12.1072C98.547 11.4699 98.1207 10.9725 97.5551 10.6194L97.4139 10.8456ZM98.5908 12.2175C98.8612 12.8074 98.9988 13.5097 98.9988 14.3279H99.2655C99.2655 13.4802 99.123 12.7385 98.8332 12.1064L98.5908 12.2175ZM92.6483 14.3279C92.6483 15.0166 92.7464 15.6193 92.9466 16.133L93.195 16.0362C93.0097 15.5606 92.915 14.9921 92.915 14.3279H92.6483ZM92.9466 16.133C93.148 16.65 93.4586 17.0547 93.8797 17.3406L94.0295 17.12C93.6578 16.8676 93.3791 16.5085 93.195 16.0362L92.9466 16.133ZM93.8802 17.3409C94.3076 17.6285 94.8428 17.7674 95.4768 17.7674V17.5007C94.8814 17.5007 94.4018 17.3704 94.0291 17.1197L93.8802 17.3409ZM95.4768 17.7674C96.114 17.7674 96.6481 17.6286 97.0688 17.3403L96.9181 17.1203C96.5533 17.3703 96.0762 17.5007 95.4768 17.5007V17.7674ZM97.0684 17.3406C97.4898 17.0545 97.7986 16.6496 97.9964 16.1322L97.7473 16.037C97.5668 16.5089 97.2901 16.8678 96.9186 17.12L97.0684 17.3406ZM97.9964 16.1322C98.1927 15.6188 98.2889 15.0163 98.2889 14.3279H98.0222C98.0222 14.9924 97.9293 15.5611 97.7473 16.037L97.9964 16.1322ZM98.2889 14.3279C98.2889 13.2816 98.0691 12.4459 97.6131 11.8365L97.3996 11.9963C97.8092 12.5436 98.0222 13.3155 98.0222 14.3279H98.2889ZM97.6136 11.8373C97.1528 11.2124 96.4361 10.9102 95.4932 10.9102V11.1768C96.3761 11.1768 97.0015 11.4565 97.399 11.9956L97.6136 11.8373ZM95.4932 10.9102C94.8561 10.9102 94.3193 11.047 93.8918 11.3307L94.0393 11.5529C94.412 11.3055 94.8936 11.1768 95.4932 11.1768V10.9102ZM93.8918 11.3307C93.4669 11.6127 93.1524 12.0136 92.947 12.527L93.1946 12.6261C93.382 12.1575 93.664 11.8019 94.0393 11.5529L93.8918 11.3307ZM92.9468 12.5275C92.7463 13.0344 92.6483 13.6357 92.6483 14.3279H92.915C92.915 13.6597 93.0097 13.0935 93.1948 12.6256L92.9468 12.5275ZM107.147 18.3269V18.4602H107.28V18.3269H107.147ZM106.077 18.3269L105.965 18.3995L106.005 18.4602H106.077V18.3269ZM101.729 11.6273L101.841 11.5547L101.801 11.4939H101.729V11.6273ZM101.685 11.6273V11.4939H101.544L101.552 11.6354L101.685 11.6273ZM101.724 12.2383L101.591 12.2468L101.591 12.2469L101.724 12.2383ZM101.756 12.9639L101.623 12.9677L101.623 12.9696L101.756 12.9639ZM101.773 18.3269V18.4602H101.906V18.3269H101.773ZM100.911 18.3269H100.777V18.4602H100.911V18.3269ZM100.911 10.3506V10.2173H100.777V10.3506H100.911ZM101.975 10.3506L102.086 10.2781L102.047 10.2173H101.975V10.3506ZM106.306 17.0284L106.195 17.101L106.234 17.1618H106.306V17.0284ZM106.345 17.0284V17.1618H106.486L106.478 17.0208L106.345 17.0284ZM106.317 16.4883L106.184 16.4945L106.184 16.4946L106.317 16.4883ZM106.285 15.73L106.151 15.7335L106.151 15.7354L106.285 15.73ZM106.274 10.3506V10.2173H106.14V10.3506H106.274ZM107.147 10.3506H107.28V10.2173H107.147V10.3506ZM107.147 18.1936H106.077V18.4602H107.147V18.1936ZM106.189 18.2543L101.841 11.5547L101.617 11.6999L105.965 18.3995L106.189 18.2543ZM101.729 11.4939H101.685V11.7606H101.729V11.4939ZM101.552 11.6354C101.563 11.8138 101.576 12.0175 101.591 12.2468L101.857 12.2299C101.842 12.0008 101.829 11.7972 101.818 11.6191L101.552 11.6354ZM101.591 12.2469C101.605 12.4706 101.616 12.7108 101.623 12.9677L101.89 12.9602C101.882 12.7005 101.871 12.457 101.857 12.2297L101.591 12.2469ZM101.623 12.9696C101.634 13.2223 101.639 13.4804 101.639 13.7441H101.906C101.906 13.4768 101.901 13.2148 101.89 12.9582L101.623 12.9696ZM101.639 13.7441V18.3269H101.906V13.7441H101.639ZM101.773 18.1936H100.911V18.4602H101.773V18.1936ZM101.044 18.3269V10.3506H100.777V18.3269H101.044ZM100.911 10.484H101.975V10.2173H100.911V10.484ZM101.863 10.4232L106.195 17.101L106.418 16.9559L102.086 10.2781L101.863 10.4232ZM106.306 17.1618H106.345V16.8951H106.306V17.1618ZM106.478 17.0208C106.47 16.8942 106.461 16.7147 106.451 16.4821L106.184 16.4946C106.195 16.7275 106.204 16.9081 106.211 17.036L106.478 17.0208ZM106.451 16.4822C106.44 16.246 106.429 15.9935 106.418 15.7246L106.151 15.7354C106.162 16.0047 106.173 16.2578 106.184 16.4945L106.451 16.4822ZM106.418 15.7264C106.411 15.4546 106.407 15.203 106.407 14.9716H106.14C106.14 15.2058 106.144 15.4598 106.151 15.7335L106.418 15.7264ZM106.407 14.9716V10.3506H106.14V14.9716H106.407ZM106.274 10.484H107.147V10.2173H106.274V10.484ZM107.013 10.3506V18.3269H107.28V10.3506H107.013Z" fill="white"/>
<path d="M91.7389 29.1666C90.6155 29.1693 89.5181 29.505 88.5855 30.1313C87.6529 30.7576 86.927 31.6464 86.4995 32.6853C86.072 33.7242 85.9622 34.8665 86.184 35.9678C86.4057 37.0691 86.9491 38.0799 87.7453 38.8724C88.5415 39.6649 89.5549 40.2035 90.6572 40.4201C91.7595 40.6366 92.9013 40.5215 93.9382 40.0891C94.9751 39.6568 95.8604 38.9267 96.4824 37.9912C97.1043 37.0557 97.4349 35.9567 97.4322 34.8333C97.4431 34.0839 97.3031 33.3399 97.0204 32.6458C96.7378 31.9516 96.3184 31.3214 95.7872 30.7927C95.256 30.2639 94.6238 29.8475 93.9283 29.5681C93.2328 29.2888 92.4882 29.1523 91.7389 29.1666V29.1666ZM91.7389 38.2733C91.0503 38.3215 90.3632 38.1614 89.7668 37.8138C89.1705 37.4663 88.6924 36.9474 88.3949 36.3246C88.0974 35.7017 87.9941 35.0038 88.0984 34.3215C88.2028 33.6392 88.51 33.0041 88.9802 32.4987C89.4503 31.9933 90.0616 31.641 90.7346 31.4877C91.4076 31.3343 92.1111 31.387 92.7538 31.6388C93.3965 31.8906 93.9485 32.3299 94.3382 32.8996C94.7279 33.4693 94.9372 34.1431 94.9389 34.8333C94.9604 35.2707 94.894 35.7079 94.7439 36.1192C94.5937 36.5305 94.3626 36.9076 94.0644 37.2282C93.7662 37.5488 93.4067 37.8065 93.0073 37.986C92.6079 38.1655 92.1766 38.2632 91.7389 38.2733ZM79.3122 29.1666C78.1888 29.1693 77.0914 29.505 76.1588 30.1313C75.2262 30.7576 74.5003 31.6464 74.0728 32.6853C73.6454 33.7242 73.5356 34.8665 73.7573 35.9678C73.9791 37.0691 74.5224 38.0799 75.3186 38.8724C76.1149 39.6649 77.1282 40.2035 78.2305 40.4201C79.3329 40.6366 80.4746 40.5215 81.5115 40.0891C82.5484 39.6568 83.4338 38.9267 84.0557 37.9912C84.6776 37.0557 85.0082 35.9567 85.0055 34.8333C85.0164 34.0839 84.8764 33.3399 84.5938 32.6458C84.3112 31.9516 83.8918 31.3214 83.3606 30.7927C82.8293 30.2639 82.1972 29.8475 81.5017 29.5681C80.8062 29.2888 80.0616 29.1523 79.3122 29.1666V29.1666ZM79.3122 38.2733C78.6237 38.3215 77.9365 38.1614 77.3402 37.8138C76.7438 37.4663 76.2658 36.9474 75.9682 36.3246C75.6707 35.7017 75.5674 35.0038 75.6718 34.3215C75.7762 33.6392 76.0834 33.0041 76.5535 32.4987C77.0236 31.9933 77.6349 31.641 78.3079 31.4877C78.9809 31.3343 79.6845 31.387 80.3271 31.6388C80.9698 31.8906 81.5219 32.3299 81.9116 32.8996C82.3012 33.4693 82.5105 34.1431 82.5122 34.8333C82.5337 35.2707 82.4674 35.7079 82.3172 36.1192C82.167 36.5305 81.936 36.9076 81.6377 37.2282C81.3395 37.5488 80.9801 37.8065 80.5807 37.986C80.1813 38.1655 79.75 38.2632 79.3122 38.2733ZM64.5389 30.9133V33.3133H70.2989C70.2086 34.4437 69.7387 35.5104 68.9655 36.34C68.3878 36.9287 67.6928 37.3895 66.9257 37.6927C66.1586 37.9958 65.3363 38.1346 64.5122 38.1C62.8148 38.1 61.187 37.4257 59.9867 36.2255C58.7865 35.0252 58.1122 33.3974 58.1122 31.7C58.1122 30.0026 58.7865 28.3747 59.9867 27.1745C61.187 25.9743 62.8148 25.3 64.5122 25.3C66.1395 25.2758 67.7107 25.8937 68.8855 27.02L70.5789 25.3266C69.7842 24.5407 68.8406 23.9212 67.8035 23.5045C66.7663 23.0878 65.6565 22.8823 64.5389 22.9C63.3535 22.8538 62.1711 23.0475 61.0624 23.4693C59.9537 23.8911 58.9415 24.5323 58.0866 25.3547C57.2316 26.177 56.5515 27.1634 56.0869 28.2549C55.6223 29.3464 55.3828 30.5204 55.3828 31.7066C55.3828 32.8929 55.6223 34.0669 56.0869 35.1584C56.5515 36.2499 57.2316 37.2363 58.0866 38.0586C58.9415 38.881 59.9537 39.5222 61.0624 39.944C62.1711 40.3658 63.3535 40.5594 64.5389 40.5133C65.6794 40.5589 66.8167 40.3626 67.8761 39.9375C68.9354 39.5124 69.8929 38.868 70.6855 38.0466C72.0857 36.5085 72.8318 34.4856 72.7655 32.4066C72.7703 31.9063 72.7302 31.4065 72.6455 30.9133H64.5389ZM124.952 32.78C124.604 31.757 123.954 30.8637 123.088 30.2184C122.221 29.5732 121.179 29.2064 120.099 29.1666C119.37 29.1652 118.648 29.3134 117.978 29.602C117.308 29.8906 116.705 30.3136 116.205 30.8447C115.705 31.3758 115.319 32.0038 115.072 32.6898C114.824 33.3759 114.72 34.1054 114.766 34.8333C114.754 36.0504 115.137 37.2386 115.856 38.2203C116.576 39.202 117.594 39.9246 118.758 40.2802C119.922 40.6357 121.17 40.6051 122.315 40.1929C123.46 39.7807 124.442 39.0091 125.112 37.9933L123.179 36.66C122.891 37.1404 122.482 37.537 121.993 37.8107C121.504 38.0843 120.952 38.2254 120.392 38.22C119.814 38.2438 119.243 38.0923 118.752 37.7854C118.262 37.4784 117.876 37.0303 117.646 36.5L125.232 33.3666L124.952 32.78ZM117.219 34.6733C117.192 34.2592 117.248 33.8438 117.383 33.4515C117.519 33.0592 117.731 32.6979 118.008 32.3887C118.285 32.0795 118.621 31.8287 118.996 31.6509C119.371 31.4731 119.778 31.3719 120.192 31.3533C120.622 31.3271 121.05 31.4282 121.422 31.6441C121.794 31.8599 122.095 32.1808 122.286 32.5666L117.219 34.6733ZM111.059 40.1666H113.552V23.5H111.059V40.1666ZM106.979 30.4333H106.886C106.513 30.0091 106.053 29.6704 105.538 29.4403C105.022 29.2101 104.463 29.0941 103.899 29.1C102.442 29.1706 101.068 29.7992 100.062 30.8554C99.0553 31.9116 98.494 33.3145 98.494 34.7733C98.494 36.2321 99.0553 37.635 100.062 38.6912C101.068 39.7474 102.442 40.376 103.899 40.4466C104.464 40.458 105.025 40.3443 105.541 40.1139C106.058 39.8834 106.517 39.5417 106.886 39.1133H106.979V39.9266C106.979 42.1 105.819 43.26 103.952 43.26C103.329 43.2463 102.723 43.0476 102.213 42.6891C101.702 42.3306 101.31 41.8286 101.086 41.2466L98.9255 42.14C99.3249 43.143 100.019 44.0012 100.917 44.6011C101.814 45.201 102.873 45.5145 103.952 45.5C106.872 45.5 109.286 43.78 109.286 39.5933V29.5H106.979V30.4333ZM104.112 38.2733C103.239 38.2188 102.419 37.8334 101.819 37.1955C101.22 36.5576 100.886 35.7153 100.886 34.84C100.886 33.9647 101.22 33.1223 101.819 32.4844C102.419 31.8465 103.239 31.4611 104.112 31.4066C104.539 31.4251 104.958 31.5292 105.344 31.7128C105.73 31.8965 106.075 32.1558 106.359 32.4755C106.642 32.7952 106.859 33.1687 106.995 33.5738C107.131 33.9788 107.185 34.4072 107.152 34.8333C107.189 35.2609 107.138 35.6914 107.003 36.0988C106.868 36.5063 106.652 36.8821 106.368 37.2037C106.084 37.5253 105.738 37.7858 105.35 37.9697C104.962 38.1535 104.541 38.2568 104.112 38.2733V38.2733ZM136.632 23.5H130.659V40.1666H133.152V33.8466H136.632C137.343 33.8977 138.056 33.8018 138.728 33.5649C139.4 33.3281 140.016 32.9554 140.538 32.47C141.059 31.9846 141.475 31.397 141.759 30.7438C142.044 30.0905 142.191 29.3857 142.191 28.6733C142.191 27.9609 142.044 27.2561 141.759 26.6029C141.475 25.9497 141.059 25.362 140.538 24.8767C140.016 24.3913 139.4 24.0185 138.728 23.7817C138.056 23.5448 137.343 23.4489 136.632 23.5V23.5ZM136.632 31.5H133.152V25.82H136.686C137.06 25.82 137.431 25.8938 137.777 26.0372C138.124 26.1806 138.438 26.3907 138.703 26.6557C138.968 26.9207 139.178 27.2352 139.322 27.5814C139.465 27.9276 139.539 28.2986 139.539 28.6733C139.539 29.048 139.465 29.4191 139.322 29.7652C139.178 30.1114 138.968 30.426 138.703 30.6909C138.438 30.9559 138.124 31.1661 137.777 31.3094C137.431 31.4528 137.06 31.5266 136.686 31.5266L136.632 31.5ZM152.019 29.1133C151.111 29.0573 150.206 29.2687 149.417 29.7213C148.628 30.174 147.989 30.848 147.579 31.66L149.779 32.58C150.001 32.1792 150.335 31.8513 150.739 31.636C151.144 31.4207 151.602 31.3271 152.059 31.3666C152.375 31.3297 152.696 31.3561 153.002 31.4444C153.308 31.5327 153.594 31.6811 153.842 31.8809C154.09 32.0807 154.296 32.328 154.448 32.6083C154.6 32.8885 154.694 33.1962 154.726 33.5133V33.6733C153.924 33.2519 153.031 33.0322 152.126 33.0333C149.752 33.0333 147.326 34.3666 147.326 36.7933C147.349 37.3091 147.476 37.8149 147.699 38.2807C147.921 38.7465 148.236 39.1628 148.622 39.5048C149.009 39.8468 149.461 40.1076 149.95 40.2717C150.44 40.4358 150.957 40.4998 151.472 40.46C152.098 40.4946 152.722 40.3622 153.279 40.0763C153.837 39.7905 154.308 39.3615 154.646 38.8333H154.726V40.1666H157.126V33.7533C157.126 30.8333 154.912 29.14 152.072 29.14L152.019 29.1133ZM151.712 38.2466C150.899 38.2466 149.766 37.8333 149.766 36.8333C149.766 35.5 151.179 35.0466 152.432 35.0466C153.224 35.0271 154.007 35.2205 154.699 35.6066C154.615 36.3307 154.272 36.9999 153.732 37.4903C153.193 37.9806 152.494 38.2588 151.766 38.2733L151.712 38.2466ZM165.872 29.5L163.019 36.7266H162.939L159.979 29.5H157.312L161.752 39.6066L159.219 45.22H161.819L168.646 29.5H165.872ZM143.472 40.1666H145.952V23.5H143.472V40.1666Z" fill="white"/>
<path d="M28.5115 26.0601L14.3115 41.1267C14.4666 41.6966 14.7507 42.2232 15.1417 42.6658C15.5327 43.1084 16.0203 43.4552 16.5666 43.6795C17.113 43.9037 17.7036 43.9993 18.2929 43.959C18.8821 43.9186 19.4541 43.7433 19.9649 43.4467V43.4467L35.9649 34.2201L28.5115 26.0601Z" fill="#EA4335"/>
<path d="M42.8722 23.5002L35.9656 19.5002L28.2056 26.4202L35.9922 34.2202L42.8589 30.2202C43.4693 29.8933 43.9796 29.4069 44.3353 28.8129C44.691 28.2188 44.8789 27.5393 44.8789 26.8469C44.8789 26.1545 44.691 25.475 44.3353 24.881C43.9796 24.2869 43.4693 23.8005 42.8589 23.4736L42.8722 23.5002Z" fill="#FBBC04"/>
<path d="M14.312 12.5405C14.2415 12.8555 14.2101 13.1779 14.2187 13.5005V40.1672C14.221 40.5004 14.2658 40.832 14.352 41.1539L29.0187 26.4872L14.312 12.5405Z" fill="#4285F4"/>
<path d="M28.6186 26.8329L35.9653 19.4863L19.9653 10.2329C19.3642 9.87561 18.6779 9.68678 17.9786 9.68628C17.1351 9.6887 16.3157 9.96784 15.6461 10.4809C14.9765 10.9939 14.4938 11.7124 14.272 12.5263V12.5263L28.6186 26.8329Z" fill="#34A853"/>
</g>
<defs>
<clipPath id="clip0_1682_4510">
<rect width="180" height="53.3333" fill="white" transform="translate(0.885254 0.166748)"/>
</clipPath>
</defs>
</svg>
